<svg width="1364" height="489" viewBox="0 0 1364 489" fill="none" xmlns="http://www.w3.org/2000/svg">
<path d="M965.353 369.71C965.305 375.662 965.141 379.739 964.617 383.775C963.928 389.1 962.776 394.363 961.174 399.509C959.369 405.303 956.804 410.895 951.669 422.077C947.491 431.179 954.856 441.518 965.532 441.533L968.115 441.536C1002.53 441.585 1043.86 441.644 1057.97 436.21C1070.42 431.42 1081.12 423.678 1088.91 413.835C1096.04 404.818 1099.64 393.336 1104.36 373.503L1025.96 373.392C1011.27 373.372 997.804 373.354 986.437 372.575C979.624 372.107 972.47 371.317 965.353 369.71Z" fill="#535868"/>
<path fill-rule="evenodd" clip-rule="evenodd" d="M833.077 98.0129C833.07 107.944 824.469 115.99 813.866 115.983L808.301 115.98C803.548 115.978 799.705 119.577 799.707 124.029C799.71 128.498 803.587 132.129 808.358 132.132L869.568 132.166C880.17 132.172 888.761 140.228 888.754 150.159C888.748 160.09 880.147 168.135 869.544 168.129L808.337 168.093C782.376 168.079 761.326 148.363 761.31 124.05C761.293 99.7206 782.346 80.0026 808.325 80.0172L813.89 80.0197C824.493 80.0264 833.083 88.0819 833.077 98.0129ZM902.909 197.193C902.908 207.125 894.312 215.176 883.709 215.176L807.072 215.175C796.469 215.175 787.873 207.125 787.873 197.194C787.874 187.262 796.468 179.213 807.073 179.212L883.71 179.212C894.313 179.212 902.909 187.263 902.909 197.193ZM902.971 291.249C902.969 301.181 894.373 309.232 883.771 309.232L807.659 309.231C797.055 309.23 788.46 301.18 788.459 291.249C788.459 281.319 797.055 273.268 807.658 273.268L883.772 273.268C894.375 273.268 902.971 281.319 902.971 291.249ZM838.595 244.38C838.477 254.311 829.787 262.27 819.184 262.16L757.974 261.522C747.372 261.411 738.873 253.271 738.991 243.341C739.109 233.41 747.799 225.451 758.401 225.561L819.611 226.199C830.214 226.31 838.713 234.45 838.595 244.38ZM887.994 338.287C887.988 348.218 879.387 356.264 868.782 356.259L807.574 356.223C802.821 356.22 798.978 359.82 798.98 364.272C798.983 368.74 802.861 372.372 807.631 372.374L813.197 372.377C823.8 372.384 832.39 380.44 832.383 390.37C832.378 400.302 823.776 408.347 813.174 408.34L807.608 408.337C781.65 408.322 760.599 388.606 760.582 364.294C760.566 339.963 781.62 320.245 807.598 320.26L868.806 320.296C879.41 320.301 888.001 328.356 887.994 338.287Z" fill="#535868"/>
<path fill-rule="evenodd" clip-rule="evenodd" d="M575.439 119.349C575.431 127.768 568.137 134.591 559.148 134.588L554.43 134.587C550.4 134.586 547.141 137.639 547.142 141.413C547.143 145.202 550.428 148.279 554.473 148.28L606.364 148.292C615.353 148.295 622.633 155.122 622.625 163.541C622.616 171.96 615.322 178.783 606.333 178.781L554.444 178.767C532.436 178.761 514.596 162.053 514.59 141.441C514.583 120.815 532.437 104.094 554.461 104.099L559.179 104.1C568.167 104.103 575.447 110.929 575.439 119.349ZM634.611 203.412C634.607 211.832 627.317 218.659 618.328 218.662L553.358 218.682C544.369 218.684 537.084 211.862 537.087 203.443C537.091 195.023 544.379 188.197 553.369 188.193L618.34 188.173C627.329 188.17 634.613 194.993 634.611 203.412ZM634.635 283.149C634.63 291.569 627.34 298.396 618.352 298.399L553.827 298.418C544.838 298.421 537.553 291.598 537.556 283.179C537.558 274.76 544.848 267.933 553.837 267.931L618.364 267.91C627.353 267.907 634.638 274.73 634.635 283.149ZM580.073 243.432C579.97 251.851 572.601 258.601 563.612 258.51L511.721 257.986C502.732 257.895 495.53 250.996 495.633 242.577C495.736 234.158 503.105 227.409 512.093 227.499L563.985 228.024C572.973 228.115 580.176 235.014 580.073 243.432ZM621.923 323.03C621.916 331.449 614.621 338.273 605.631 338.271L553.741 338.257C549.712 338.256 546.452 341.309 546.453 345.082C546.454 348.871 549.74 351.949 553.784 351.949L558.503 351.95C567.492 351.953 574.772 358.78 574.763 367.198C574.755 375.618 567.461 382.441 558.472 382.438L553.754 382.437C531.748 382.431 513.907 365.722 513.9 345.111C513.894 324.485 531.748 307.763 553.772 307.768L605.662 307.783C614.652 307.784 621.932 314.611 621.923 323.03Z" fill="#535868"/>
<path fill-rule="evenodd" clip-rule="evenodd" d="M350.008 141.25C349.998 148.157 344.011 153.757 336.636 153.758L332.766 153.759C329.46 153.76 326.784 156.266 326.784 159.362C326.783 162.47 329.477 164.993 332.796 164.993L375.368 164.985C382.743 164.984 388.713 170.582 388.703 177.49C388.692 184.397 382.705 189.997 375.331 189.998L332.759 190.005C314.703 190.008 300.074 176.307 300.077 159.396C300.08 142.475 314.734 128.749 332.803 128.746L336.674 128.745C344.048 128.744 350.018 134.342 350.008 141.25ZM398.52 210.196C398.513 217.104 392.53 222.708 385.155 222.713L331.852 222.753C324.477 222.758 318.503 217.163 318.509 210.256C318.516 203.348 324.498 197.745 331.874 197.739L385.177 197.699C392.552 197.694 398.526 203.289 398.52 210.196ZM398.508 275.614C398.501 282.522 392.517 288.126 385.143 288.132L332.205 288.171C324.83 288.176 318.856 282.581 318.862 275.674C318.867 268.767 324.85 263.163 332.225 263.158L385.165 263.118C392.539 263.113 398.513 268.708 398.508 275.614ZM353.76 243.049C353.672 249.956 347.623 255.497 340.249 255.425L297.676 255.013C290.302 254.942 284.395 249.284 284.483 242.378C284.571 235.471 290.62 229.93 297.994 230.002L340.567 230.414C347.941 230.485 353.848 236.143 353.76 243.049ZM388.063 308.338C388.053 315.246 382.066 320.846 374.69 320.848L332.118 320.855C328.812 320.856 326.137 323.361 326.136 326.458C326.135 329.566 328.83 332.09 332.148 332.088L336.019 332.088C343.394 332.087 349.364 337.685 349.353 344.592C349.344 351.5 343.356 357.1 335.982 357.101L332.111 357.102C314.056 357.105 299.426 343.403 299.429 326.493C299.432 309.57 314.087 295.845 332.156 295.842L374.727 295.835C382.103 295.833 388.073 301.431 388.063 308.338Z" fill="#535868"/>
<path fill-rule="evenodd" clip-rule="evenodd" d="M119.579 163.151C119.567 168.546 114.887 172.924 109.126 172.928L106.103 172.931C103.521 172.933 101.429 174.892 101.427 177.311C101.424 179.739 103.528 181.708 106.12 181.706L139.374 181.677C145.134 181.673 149.794 186.043 149.782 191.438C149.77 196.833 145.09 201.211 139.33 201.216L106.076 201.244C91.9723 201.256 80.5531 190.561 80.5661 177.351C80.5781 164.134 92.0335 153.405 106.147 153.393L109.171 153.39C114.931 153.385 119.591 157.755 119.579 163.151ZM157.431 216.98C157.422 222.377 152.745 226.757 146.984 226.765L105.348 226.824C99.5872 226.832 94.9243 222.465 94.9328 217.07C94.9423 211.674 99.6185 207.294 105.38 207.285L147.016 207.226C152.777 207.218 157.44 211.585 157.431 216.98ZM157.382 268.08C157.372 273.476 152.695 277.857 146.935 277.865L105.584 277.923C99.8233 277.931 95.1604 273.564 95.1689 268.169C95.1774 262.773 99.8545 258.393 105.615 258.385L146.967 258.326C152.728 258.318 157.391 262.685 157.382 268.08ZM122.448 242.667C122.375 248.062 117.647 252.393 111.887 252.341L78.6328 252.041C72.8726 251.99 68.2624 247.573 68.3353 242.178C68.408 236.783 73.1361 232.452 78.8964 232.504L112.151 232.803C117.911 232.855 122.521 237.271 122.448 242.667ZM149.204 293.647C149.192 299.043 144.512 303.42 138.751 303.426L105.497 303.453C102.915 303.456 100.823 305.414 100.821 307.833C100.818 310.261 102.922 312.231 105.513 312.228L108.537 312.226C114.298 312.221 118.958 316.591 118.945 321.986C118.934 327.382 114.253 331.76 108.493 331.764L105.469 331.767C91.3666 331.778 79.9469 321.083 79.959 307.875C79.972 294.656 91.4274 283.927 105.541 283.915L138.795 283.887C144.556 283.882 149.216 288.252 149.204 293.647Z" fill="#535868"/>
<path d="M1103.94 114.763L1025.8 114.653C1011.44 114.632 998.267 114.614 987.11 115.303C979.946 115.745 972.423 116.528 964.973 118.2L964.972 117.487C964.969 116.133 964.968 115.456 964.958 114.785C964.755 102.235 962.002 89.8288 956.845 78.2301C956.569 77.6103 956.282 76.9882 955.708 75.7441L952.19 68.1257C947.425 57.8049 955.482 46.3193 967.475 46.3364C1001.89 46.3854 1043.22 46.4442 1057.35 51.9169C1069.81 56.7433 1080.54 64.5153 1088.36 74.3798C1095.53 83.418 1099.16 94.9124 1103.94 114.763Z" fill="#535868"/>
<path fill-rule="evenodd" clip-rule="evenodd" d="M1026.99 342.82L1206.64 343.072C1232.51 343.11 1245.45 343.128 1257.07 338.631C1268.7 334.136 1277.83 325.582 1296.1 308.474L1304.82 300.301C1332.91 273.993 1346.96 260.84 1346.93 244.469C1346.9 228.1 1332.82 214.907 1304.64 188.52L1295.89 180.322C1277.57 163.162 1268.41 154.582 1256.77 150.054C1245.13 145.525 1232.19 145.507 1206.32 145.47L1026.67 145.216C996.44 145.174 977.695 145.147 965.022 150.208C961.017 151.808 957.618 153.915 954.655 156.69C942.315 168.247 942.344 186.878 942.404 224.139L942.413 229.146L1005.61 228.708C1014.62 228.646 1021.98 235.437 1022.05 243.878C1022.12 252.319 1014.86 259.214 1005.85 259.276L942.461 259.715L942.468 263.658C942.529 300.92 942.559 319.549 954.936 331.14C957.673 333.703 960.774 335.7 964.374 337.256C977.075 342.749 995.996 342.774 1026.99 342.82ZM1174.58 283.755C1151.27 283.722 1132.35 266.001 1132.32 244.175C1132.28 222.348 1151.15 204.681 1174.45 204.714C1197.76 204.746 1216.68 222.467 1216.71 244.294C1216.75 266.121 1197.89 283.789 1174.58 283.755Z" fill="#045574"/>
</svg>
